<?xml version="1.0" standalone="no"?>
<!DOCTYPE svg PUBLIC "-//W3C//DTD SVG 20010904//EN"
 "http://www.w3.org/TR/2001/REC-SVG-20010904/DTD/svg10.dtd">
<svg version="1.0" xmlns="http://www.w3.org/2000/svg"
 width="1188.000000pt" height="1188.000000pt" viewBox="0 0 1188.000000 1188.000000"
 preserveAspectRatio="xMidYMid meet">
<metadata>
Created by potrace 1.14, written by Peter Selinger 2001-2017
</metadata>
<g transform="translate(0.000000,1188.000000) scale(0.100000,-0.100000)"
fill="#000000" stroke="none">
<path d="M5498 9915 c-1 -1 -93 -6 -203 -9 -318 -10 -484 -18 -800 -41 -33 -2
-100 -7 -150 -10 -49 -4 -101 -8 -115 -10 -14 -3 -61 -7 -105 -11 -105 -8
-155 -13 -300 -29 -88 -10 -104 -12 -170 -20 -33 -4 -71 -8 -85 -10 -14 -1
-43 -5 -65 -8 -22 -4 -59 -9 -82 -12 -102 -12 -131 -16 -183 -26 -30 -6 -68
-12 -85 -14 -16 -1 -48 -6 -70 -9 -39 -6 -58 -9 -115 -21 -14 -2 -45 -7 -70
-11 -50 -7 -75 -12 -75 -14 0 -1 -9 -3 -20 -4 -23 -3 -228 -43 -265 -52 -14
-3 -34 -7 -45 -9 -11 -2 -51 -11 -90 -20 -38 -9 -79 -19 -90 -21 -11 -3 -31
-7 -45 -10 -103 -21 -378 -100 -555 -160 -88 -30 -167 -56 -175 -58 -29 -8
-264 -108 -322 -136 -32 -16 -58 -26 -58 -22 0 4 -4 3 -8 -3 -4 -5 -27 -20
-52 -33 -269 -138 -483 -307 -600 -477 -19 -27 -38 -51 -42 -53 -5 -2 -8 -7
-8 -12 0 -4 -14 -39 -32 -76 -18 -38 -33 -73 -34 -79 -1 -5 -9 -38 -17 -72
-15 -63 -16 -221 -2 -293 19 -97 84 -257 137 -337 15 -23 28 -45 28 -48 0 -13
124 -172 188 -243 150 -163 339 -337 487 -447 22 -16 42 -32 45 -35 20 -20 91
-70 99 -70 6 0 11 -3 11 -7 0 -5 25 -24 55 -43 30 -19 54 -38 55 -42 0 -5 7
-8 15 -8 8 0 15 -4 15 -8 0 -5 19 -19 42 -32 24 -13 45 -26 48 -29 9 -10 69
-51 75 -51 5 0 64 -39 75 -50 3 -3 16 -11 30 -19 14 -8 98 -59 187 -113 89
-54 167 -98 173 -98 5 0 10 -4 10 -10 0 -5 5 -10 11 -10 6 0 24 -9 40 -21 16
-11 29 -17 29 -13 0 4 8 0 18 -8 9 -8 24 -18 32 -21 8 -4 38 -20 65 -37 28
-17 66 -38 85 -46 19 -9 37 -20 40 -24 3 -4 37 -24 75 -45 39 -21 72 -42 73
-47 2 -4 9 -8 15 -8 7 0 36 -16 64 -35 29 -19 55 -35 58 -35 9 0 299 -182 321
-202 11 -10 23 -18 27 -18 3 0 27 -15 53 -32 25 -18 53 -37 62 -43 9 -5 46
-31 84 -57 37 -27 72 -48 77 -48 5 0 11 -4 13 -8 2 -5 30 -28 63 -53 33 -24
62 -47 63 -51 2 -5 8 -8 13 -8 11 0 277 -213 349 -279 291 -268 445 -466 531
-684 12 -28 23 -65 26 -82 2 -16 7 -37 10 -45 11 -31 11 -147 -2 -210 -13 -69
-54 -166 -89 -213 -44 -60 -174 -185 -236 -227 -144 -99 -298 -179 -490 -253
-111 -43 -352 -124 -395 -132 -11 -2 -20 -4 -20 -5 0 -1 -7 -3 -15 -5 -8 -2
-69 -18 -135 -35 -66 -18 -128 -34 -137 -36 -10 -2 -26 -6 -35 -8 -42 -10
-110 -25 -133 -30 -14 -2 -81 -16 -150 -31 -69 -14 -138 -28 -155 -30 -16 -3
-41 -7 -55 -10 -14 -3 -38 -7 -55 -10 -16 -3 -41 -7 -55 -10 -44 -9 -77 -15
-116 -20 -22 -3 -50 -7 -64 -10 -14 -4 -43 -8 -65 -11 -22 -3 -51 -7 -65 -10
-14 -3 -38 -7 -55 -9 -16 -2 -46 -6 -65 -10 -45 -7 -90 -13 -220 -29 -30 -4
-62 -9 -70 -11 -8 -3 -35 -7 -60 -9 -25 -3 -58 -7 -75 -10 -16 -2 -52 -7 -80
-11 -100 -11 -211 -26 -245 -31 -19 -3 -53 -7 -74 -9 -22 -2 -62 -7 -90 -11
-28 -3 -64 -8 -81 -9 -16 -2 -48 -6 -70 -9 -22 -4 -56 -8 -75 -10 -19 -3 -35
-5 -35 -6 0 -1 -18 -3 -40 -5 -22 -2 -60 -7 -85 -11 -25 -3 -56 -8 -70 -9 -14
-2 -38 -6 -55 -8 -16 -3 -50 -8 -75 -12 -25 -3 -63 -10 -85 -15 -22 -5 -54
-11 -72 -15 -18 -3 -43 -9 -57 -15 -15 -5 -26 -7 -26 -4 0 2 -13 -2 -30 -11
-16 -9 -30 -13 -30 -10 0 3 -11 -5 -26 -17 -29 -26 -26 -60 9 -89 20 -16 181
-73 232 -82 11 -2 27 -7 35 -10 13 -4 49 -12 145 -31 11 -2 45 -9 75 -16 30
-6 68 -13 84 -15 15 -3 35 -6 45 -9 9 -3 36 -8 61 -12 50 -7 75 -12 75 -14 0
-1 14 -3 30 -5 17 -2 44 -6 60 -9 17 -4 46 -9 65 -12 19 -3 46 -8 60 -10 14
-3 39 -7 55 -9 17 -2 46 -7 65 -10 19 -4 49 -8 65 -10 17 -2 39 -6 50 -8 11
-3 45 -8 75 -12 30 -4 64 -9 75 -12 11 -3 34 -6 50 -8 17 -2 44 -5 60 -8 17
-3 50 -8 75 -12 66 -10 96 -14 128 -20 16 -3 44 -7 63 -9 19 -3 63 -9 99 -15
65 -10 138 -21 175 -26 11 -1 43 -5 70 -9 28 -4 64 -9 80 -11 17 -3 39 -7 51
-9 12 -2 45 -7 75 -11 30 -3 65 -8 79 -10 14 -3 45 -7 70 -10 25 -3 56 -7 70
-9 14 -2 45 -7 70 -10 115 -14 146 -18 165 -21 11 -2 45 -6 75 -10 30 -4 66
-9 80 -11 14 -3 45 -7 70 -9 25 -3 59 -7 75 -9 35 -6 112 -15 170 -20 22 -2
56 -7 75 -10 37 -6 92 -12 175 -21 28 -3 64 -7 80 -10 17 -3 57 -8 90 -11 33
-3 78 -8 100 -10 22 -3 56 -7 75 -9 19 -1 60 -6 90 -9 30 -4 75 -8 100 -11 25
-3 70 -7 100 -10 30 -4 75 -8 100 -10 25 -3 68 -7 95 -10 28 -3 82 -8 120 -11
39 -3 90 -8 115 -10 25 -2 74 -6 110 -9 36 -3 94 -8 130 -11 72 -6 120 -9 255
-18 50 -3 115 -8 145 -11 52 -5 101 -7 445 -22 329 -15 1104 -7 1287 12 31 4
78 8 105 10 26 2 48 4 48 5 0 1 20 3 45 5 69 7 112 12 150 19 19 4 46 9 60 11
122 16 364 75 460 111 3 1 16 5 28 9 39 13 174 80 222 111 83 53 172 140 191
186 6 15 15 28 19 28 4 0 11 10 15 23 4 12 8 24 9 27 12 29 24 85 20 91 -2 4
-1 10 4 13 9 5 8 144 -2 186 -3 14 -9 39 -13 55 -4 17 -7 32 -8 35 -8 55 -115
271 -186 378 -16 24 -29 45 -29 48 0 3 -6 12 -12 19 -20 22 -32 37 -58 75 -13
19 -29 38 -35 42 -6 5 -6 8 0 8 6 0 6 3 -1 8 -5 4 -37 41 -69 82 -33 41 -96
118 -140 170 -44 52 -89 106 -100 119 -11 13 -29 34 -40 46 -35 40 -137 157
-165 192 -93 113 -237 281 -285 333 -88 94 -312 315 -396 390 -40 36 -77 70
-83 75 -6 6 -40 35 -76 65 -36 30 -67 57 -70 60 -3 3 -40 35 -84 70 -43 36
-90 75 -104 88 -14 12 -28 22 -31 22 -3 0 -20 13 -37 28 -17 15 -46 38 -64 52
-102 76 -175 135 -178 142 -2 4 -10 8 -17 8 -7 0 -15 3 -17 8 -1 4 -41 35 -88
69 -47 34 -89 66 -95 70 -5 5 -50 38 -100 73 -49 36 -96 71 -103 77 -7 7 -16
13 -20 13 -4 0 -19 10 -34 23 -27 22 -225 163 -256 182 -10 6 -19 13 -22 16
-4 5 -34 26 -154 109 -73 51 -372 265 -376 270 -3 3 -21 17 -40 30 -19 13 -37
27 -40 30 -3 3 -21 16 -40 30 -19 13 -39 28 -45 32 -5 5 -46 36 -90 70 -44 34
-82 64 -85 67 -3 3 -27 24 -55 46 -80 63 -103 84 -224 205 -125 124 -161 165
-161 180 0 6 -4 10 -8 10 -13 0 -64 96 -88 164 -26 75 -23 150 8 213 24 48
123 153 145 153 7 0 13 4 13 10 0 5 11 12 25 16 14 3 25 9 25 13 0 7 30 22
145 72 53 23 210 78 235 82 8 2 35 9 60 16 25 7 50 14 55 15 6 2 28 8 50 14
22 6 52 14 68 17 61 12 84 17 127 26 25 6 56 13 70 15 69 13 197 37 215 40 11
2 31 6 45 9 14 3 36 7 50 10 51 10 106 18 128 19 12 1 22 4 22 9 0 4 3 6 8 5
8 -2 113 14 182 27 64 13 77 16 105 20 17 3 53 10 80 15 45 8 69 12 145 25 14
2 39 6 55 9 17 3 47 8 69 11 21 4 48 9 60 11 11 3 35 7 51 9 71 11 124 19 175
30 14 3 45 8 70 11 25 3 54 8 65 10 11 3 36 7 55 10 19 3 46 7 59 9 13 2 45 7
70 11 25 4 55 8 66 10 11 3 35 7 53 9 76 12 98 15 122 19 44 8 104 18 130 21
14 2 39 5 55 8 33 6 106 17 145 23 42 5 146 21 205 31 42 7 62 10 130 18 33 4
69 9 80 12 11 2 36 6 55 8 19 2 49 6 65 8 71 12 116 19 152 22 21 2 83 11 138
19 55 8 118 17 140 20 22 3 56 7 75 10 30 4 106 15 225 31 17 2 53 7 80 10 28
3 65 8 83 11 18 2 54 7 80 10 26 3 58 7 72 9 14 2 48 6 75 10 28 3 66 8 85 11
19 2 53 6 75 9 37 3 70 7 165 20 50 7 118 15 170 21 44 4 111 12 160 19 14 2
52 7 85 10 33 3 71 8 85 10 14 2 48 7 75 10 113 12 141 15 165 20 14 2 59 7
100 11 117 11 125 12 125 14 0 1 20 3 45 5 25 2 63 7 86 10 22 3 60 8 85 11
24 3 55 7 69 10 14 2 52 7 85 9 33 3 71 7 85 9 24 5 81 12 169 21 24 2 62 7
85 11 23 4 55 8 71 10 79 8 123 13 150 19 17 3 53 8 80 11 28 2 61 7 75 9 14
3 43 8 65 11 22 2 51 7 65 10 30 7 52 11 105 18 22 3 74 13 115 22 41 8 82 17
90 19 52 11 160 48 160 56 0 5 6 9 13 9 21 0 57 44 57 68 0 38 -73 93 -177
133 -13 5 -33 13 -45 19 -26 10 -145 50 -168 55 -8 2 -46 13 -85 25 -38 12
-81 23 -95 26 -14 3 -38 9 -55 14 -16 5 -49 13 -72 19 -24 6 -60 16 -80 22
-21 5 -45 12 -53 13 -8 2 -26 6 -40 9 -83 21 -201 48 -220 52 -12 2 -31 7 -42
11 -11 3 -30 8 -41 9 -12 2 -62 13 -112 25 -49 11 -99 22 -110 25 -11 2 -20 4
-20 5 0 1 -11 3 -25 5 -14 2 -45 8 -70 15 -25 6 -56 13 -70 15 -14 3 -45 10
-70 15 -25 6 -54 12 -65 15 -11 2 -50 11 -86 19 -36 8 -80 17 -97 19 -17 3
-35 7 -39 10 -5 3 -29 8 -53 12 -25 3 -63 10 -85 15 -22 5 -53 11 -70 14 -16
3 -41 8 -55 11 -29 6 -131 24 -175 31 -16 2 -41 7 -55 10 -14 4 -41 7 -60 9
-20 1 -44 5 -55 8 -23 7 -58 13 -130 23 -68 8 -88 11 -137 19 -24 4 -54 8 -68
10 -14 2 -59 8 -100 14 -41 6 -95 13 -120 15 -25 3 -58 7 -75 10 -16 2 -57 7
-89 11 -33 3 -74 8 -91 11 -18 3 -54 7 -81 9 -27 2 -71 7 -99 9 -27 3 -75 8
-105 11 -30 3 -77 8 -105 10 -59 6 -149 14 -225 20 -30 2 -84 7 -120 10 -103
8 -219 16 -300 21 -41 2 -100 6 -130 8 -30 2 -134 7 -230 11 -96 4 -206 9
-245 11 -95 5 -1382 13 -1387 9z"/>
</g>
</svg>
